<svg width="315" height="86" viewBox="0 0 315 86" fill="none" xmlns="http://www.w3.org/2000/svg">
<path d="M9.22583 21.2668V10.1426H10.4759C14.7275 10.1426 16.5245 11.8178 16.5245 15.6131C16.5245 19.4084 15.1897 21.2668 10.7884 21.2668H9.22583ZM9.22583 41.4016V28.4059H11.2181C15.2614 28.4059 17.9829 30.1923 17.9829 34.7402C17.9829 38.9412 17.0909 41.4016 11.5437 41.4016H9.22583ZM27.3194 35.3356C27.3194 29.6034 24.7151 26.4625 19.5585 24.6695C24.3309 23.1972 25.7633 18.7279 25.7633 14.9326C25.7633 8.25807 21.8568 2.7287 13.7509 2.7287H0V48.809H14.5322C24.357 48.809 27.3129 41.8662 27.3129 35.3356H27.3194ZM53.6882 0L52.2884 3.46813C50.1294 2.63876 47.8349 2.2237 45.5237 2.24447C36.3629 2.24447 29.5917 7.97669 29.5917 18.9831V32.6135C29.5917 38.6205 31.584 43.0113 34.8394 45.7465L32.782 50.7524H37.0205L38.225 47.8863C40.556 48.855 43.0603 49.3316 45.5823 49.2867C54.743 49.2867 61.5142 43.8162 61.5142 32.5415V18.9242C61.5142 12.7143 59.3201 8.19917 55.7391 5.37887L57.9333 0.0196309L53.6882 0ZM51.6308 15.3252C51.6861 15.9187 51.7057 16.5161 51.6894 17.1116V34.4719C51.6894 40.0732 49.5083 41.6699 45.5237 41.6699C43.9978 41.8017 42.4788 41.3482 41.2721 40.4004L51.6308 15.3252ZM39.436 34.6289V17.0658C39.436 11.6608 41.6237 9.8678 45.6018 9.8678C46.8812 9.81356 48.1498 10.1244 49.2609 10.7643L39.436 34.6289ZM74.4512 21.293V10.195H77.1988C81.7564 10.195 83.8398 11.7982 83.8398 15.3252C83.8398 18.8522 82.4075 21.2668 77.1988 21.2668L74.4512 21.293ZM85.4024 27.3589C89.641 25.7623 92.7662 20.9658 92.7662 15.5804C92.7662 8.90589 88.8597 2.7745 80.0245 2.7745H65.1798V48.8548H74.4512V28.7985H76.4435L83.3385 48.809H93.9186L85.4024 27.3589ZM105.176 48.8024V19.0681L115.873 48.809H127.332V2.7287H118.783V32.3975L107.962 2.7287H96.549V48.809L105.176 48.8024ZM153.948 41.1267H141.487V28.5957H152.959V20.9985H141.474V10.4175H153.284V2.7287H131.948V48.809H153.851L153.948 41.1267ZM167.107 21.293V10.1688H168.35C172.602 10.1688 174.386 11.844 174.386 15.6393C174.386 19.4346 173.084 21.3126 168.663 21.3126L167.107 21.293ZM167.107 41.4343V28.4059H169.099C173.142 28.4059 175.864 30.1923 175.864 34.7402C175.864 38.9412 174.972 41.4016 169.425 41.4016L167.107 41.4343ZM185.155 35.3618C185.155 29.6296 182.55 26.4952 177.394 24.6957C182.173 23.2234 183.612 18.7541 183.612 14.9587C183.612 8.28424 179.705 2.75487 171.606 2.75487H157.861V48.8351H172.394C182.212 48.8351 185.129 41.8923 185.129 35.3618H185.155ZM188.456 48.8351H197.942V2.7287H188.456V48.8351ZM227.469 10.4175V2.7287H203.248V48.809H212.741V28.6611H224.461V20.9985H212.741V10.4175H227.469ZM255.341 10.4175V2.7287H231.115V48.809H240.62V28.6611H252.34V20.9985H240.62V10.4175H255.341ZM280.89 41.1725H268.448V28.6284H279.959V20.9985H268.48V10.4175H280.297V2.7287H258.961V48.809H280.857L280.89 41.1725ZM292.766 48.8482V19.0681L303.515 48.809H315V2.7287H306.445V32.3975L295.617 2.7287H284.243V48.809L292.766 48.8482ZM4.72035 80.9186C4.06631 80.9208 3.41315 80.8705 2.7671 80.7681C2.23647 80.6856 1.71235 80.5652 1.19799 80.4082C0.870315 80.3114 0.553838 80.1798 0.253922 80.0156L0.755255 77.8365C1.07103 78.0145 1.40243 78.1631 1.7449 78.2815C2.17006 78.4333 2.60498 78.5557 3.04706 78.6479C3.52551 78.7413 4.0116 78.7895 4.49898 78.7919C5.21036 78.8365 5.92015 78.6825 6.54988 78.3469C6.78476 78.1881 6.97316 77.969 7.09563 77.7125C7.2181 77.456 7.2702 77.1712 7.24654 76.8877C7.25978 76.4773 7.13601 76.0742 6.89496 75.7426C6.58882 75.3825 6.22046 75.081 5.80765 74.8526C5.31934 74.5713 4.70732 74.2506 3.96509 73.8973C3.32344 73.5859 2.71297 73.2133 2.14206 72.7848C1.59173 72.3684 1.11988 71.8565 0.748744 71.2733C0.407992 70.6797 0.218402 70.0107 0.196821 69.3258C0.17524 68.6408 0.322336 67.9611 0.625039 67.3471C0.907608 66.84 1.31012 66.4108 1.79699 66.0972C2.31071 65.7663 2.87646 65.5252 3.47027 65.384C4.91075 65.073 6.40297 65.0976 7.83252 65.456C8.3065 65.579 8.76356 65.7616 9.19328 65.9991L8.69846 68.1061C8.29172 67.8488 7.85418 67.6443 7.39629 67.4976C6.76526 67.296 6.10488 67.2031 5.44305 67.2228C4.9842 67.2168 4.52726 67.283 4.0888 67.4191C3.72097 67.5191 3.38619 67.7156 3.11868 67.9884C2.99578 68.1165 2.90008 68.2685 2.8374 68.435C2.77473 68.6014 2.74638 68.779 2.75408 68.9568C2.74106 69.3527 2.84262 69.744 3.04706 70.0823C3.29057 70.4422 3.61351 70.74 3.99113 70.9526C4.42085 71.2209 4.98078 71.535 5.67743 71.9015C6.22434 72.1697 6.74521 72.4577 7.25305 72.7587C7.73981 73.0499 8.19767 73.3873 8.62033 73.7664C9.01469 74.1223 9.33739 74.5511 9.57091 75.0293C9.81246 75.5351 9.93291 76.0913 9.92249 76.6521C9.9513 77.488 9.72403 78.3126 9.27141 79.0144C8.82029 79.6538 8.19358 80.1472 7.46791 80.4344C6.59247 80.7751 5.65892 80.9397 4.72035 80.9186ZM17.0323 80.9186C16.3048 80.9652 15.5761 80.8471 14.9 80.573C14.2239 80.299 13.6176 79.8759 13.1258 79.335C12.1519 78.0909 11.6654 76.5311 11.7585 74.9508C11.7399 73.9123 11.9489 72.8824 12.3706 71.9342C12.7586 71.0765 13.382 70.3478 14.1675 69.8337C15.0415 69.2935 16.0521 69.0186 17.0779 69.0419C17.6406 69.0256 18.2019 69.1053 18.7381 69.2775C19.247 69.4507 19.7162 69.7244 20.1184 70.0823C20.5391 70.4702 20.8703 70.9459 21.0885 71.4761C21.3431 72.1148 21.4714 72.7973 21.4662 73.485V74.6498C21.4648 74.9555 21.4321 75.2603 21.3685 75.5593H13.243L13.4514 73.9823H19.0116C19.0478 73.4652 19.0127 72.9455 18.9074 72.438C18.8311 72.0054 18.6189 71.6087 18.3019 71.306C17.9236 70.9957 17.4411 70.8434 16.9542 70.8806C16.4607 70.8709 15.9771 71.0199 15.5739 71.306C15.1131 71.6798 14.7863 72.1944 14.6428 72.7718C14.4019 73.6977 14.3108 74.6563 14.3694 75.6117C14.371 76.297 14.541 76.9714 14.8642 77.5748C15.1383 78.0376 15.5507 78.4017 16.0427 78.6152C16.5668 78.8312 17.13 78.9385 17.6964 78.9293C18.0324 78.926 18.367 78.8979 18.6991 78.8442C19.0721 78.7925 19.4413 78.718 19.8059 78.6218C20.0872 78.5557 20.3593 78.4523 20.6133 78.3142L21.0951 79.8127C20.7792 80.0522 20.4276 80.2399 20.0533 80.3689C19.58 80.5358 19.0943 80.6647 18.6014 80.755C18.0845 80.8577 17.5597 80.9127 17.0323 80.9186ZM37.7823 69.1858L30.2102 77.1625L30.3925 76.5736L30.4381 78.5367V80.7223H27.8338V63.9117H30.4381V72.2614L30.3209 75.1144L29.7805 74.7021L34.6897 69.1858H37.7823ZM31.571 75.1994L33.3484 73.4457L38.2315 80.7288H35.2496L31.571 75.1994ZM44.0848 80.9186C43.2437 80.9441 42.4081 80.7739 41.6432 80.4213C40.9976 80.1089 40.4386 79.6414 40.0155 79.0602C39.594 78.4695 39.289 77.8031 39.117 77.0971C38.9276 76.3267 38.8379 75.5349 38.8501 74.7414C38.8329 73.6548 39.0881 72.5814 39.5923 71.6201C40.0421 70.8022 40.7214 70.1354 41.5455 69.7028C42.4005 69.2596 43.3508 69.0349 44.3126 69.0484C45.4086 68.991 46.4936 69.2917 47.4053 69.9056C48.174 70.474 48.7529 71.2635 49.0655 72.1697C49.4106 73.1454 49.5766 74.1767 49.5539 75.2125C49.5702 76.3032 49.3151 77.3806 48.8116 78.3469C48.3647 79.1687 47.6848 79.8383 46.8584 80.2708C46.002 80.7156 45.0486 80.9383 44.0848 80.9186ZM44.1564 79.0536C44.5541 79.0845 44.9527 79.005 45.3086 78.8238C45.6645 78.6427 45.9641 78.3668 46.1747 78.0263C46.6618 77.1325 46.8875 76.1185 46.8258 75.1013C46.8337 74.3938 46.7416 73.6888 46.5524 73.0073C46.4096 72.438 46.1199 71.9166 45.7125 71.4957C45.5145 71.305 45.2807 71.1558 45.0247 71.0569C44.7687 70.958 44.4956 70.9114 44.2215 70.9199C43.8286 70.8883 43.4344 70.9626 43.0797 71.1351C42.7249 71.3077 42.4223 71.5722 42.2031 71.9015C41.7136 72.7777 41.4875 73.7778 41.5521 74.7806C41.5427 75.4964 41.6325 76.21 41.819 76.9008C41.9674 77.4923 42.2682 78.0335 42.6915 78.4713C42.8847 78.6615 43.1139 78.811 43.3654 78.911C43.617 79.0111 43.8859 79.0595 44.1564 79.0536ZM51.9694 80.755V69.2055H54.2351L54.3979 70.7825L54.6063 71.5546V80.755H51.9694ZM54.463 72.582L54.3133 70.7825C54.4674 70.4721 54.6901 70.2013 54.9643 69.9907C55.3193 69.7034 55.7141 69.4698 56.1363 69.2971C56.5806 69.1138 57.0559 69.0183 57.5361 69.0157C57.753 69.0046 57.9703 69.0046 58.1872 69.0157C58.3304 69.0236 58.4711 69.0641 58.5974 69.1335V71.6528C58.451 71.5736 58.2959 71.5121 58.1351 71.4696C57.8135 71.3912 57.4826 71.3582 57.152 71.3714C56.7463 71.364 56.3426 71.4305 55.9605 71.5677C55.6398 71.6772 55.3371 71.8338 55.062 72.0323C54.8445 72.1946 54.6434 72.3791 54.463 72.582ZM64.0274 80.9186C63.5008 80.9316 62.9774 80.8335 62.4909 80.6307C62.0576 80.4289 61.7077 80.0818 61.5012 79.6491C61.2446 79.0441 61.1266 78.3888 61.1561 77.7318V71.0835H59.6977V69.6635C60.2121 69.5196 60.6027 69.3887 60.8892 69.2775C61.0383 69.222 61.1736 69.1349 61.286 69.0219C61.3984 68.909 61.4851 68.7729 61.5403 68.6231C61.5989 68.466 61.6575 68.2828 61.7291 68.0734C61.8007 67.864 61.8853 67.6285 61.97 67.3733L62.2434 66.5553H63.8256V69.1728H67.0094V71.0704H63.8256V76.4296C63.8099 76.9728 63.8451 77.5159 63.9297 78.0525C63.9382 78.1834 63.9766 78.3107 64.0421 78.4242C64.1077 78.5377 64.1984 78.6345 64.3074 78.7068C64.5632 78.8109 64.8387 78.858 65.1147 78.8442C65.3335 78.8423 65.5509 78.8207 65.7658 78.7788C66.0029 78.7342 66.2376 78.6775 66.469 78.6087C66.6493 78.5544 66.8238 78.4824 66.9898 78.3927L67.3935 79.8978C67.1357 80.0954 66.8531 80.2583 66.5536 80.382C66.1708 80.5436 65.7736 80.6706 65.3686 80.7615C64.9289 80.8644 64.4789 80.9171 64.0274 80.9186ZM70.3234 80.755V71.0966H68.6761V69.5915L70.3234 69.1858V68.1389C70.3013 67.4065 70.4321 66.6775 70.7075 65.9991C70.9368 65.4708 71.287 65.0044 71.7297 64.638C72.1357 64.3038 72.6054 64.0566 73.11 63.9117C73.5846 63.7763 74.0751 63.7058 74.5684 63.7023C74.9172 63.6994 75.2657 63.7256 75.6102 63.7808C75.8302 63.8089 76.0477 63.8528 76.2612 63.9117V65.8748C76.0492 65.8048 75.8313 65.7544 75.6102 65.7243C75.2757 65.6798 74.9384 65.6601 74.601 65.6654C74.3815 65.6599 74.1636 65.7048 73.9639 65.7967C73.7642 65.8885 73.588 66.0249 73.4486 66.1954C73.1144 66.6618 72.9552 67.2321 72.9993 67.8051V69.1662H75.7469V71.077H72.9993V80.7354L70.3234 80.755ZM79.2497 67.2751C78.8351 67.2836 78.4326 67.134 78.1233 66.8563C77.9663 66.7199 77.842 66.5496 77.7597 66.3581C77.6774 66.1666 77.6392 65.9588 77.648 65.7504C77.6461 65.4396 77.7392 65.1353 77.915 64.8801C78.081 64.6249 78.3037 64.4123 78.5661 64.2585C78.8317 64.1047 79.1325 64.0236 79.4385 64.0229C79.6462 64.0018 79.8559 64.0262 80.0534 64.0943C80.2508 64.1624 80.4312 64.2727 80.5821 64.4176C80.7331 64.5625 80.8511 64.7385 80.9279 64.9336C81.0047 65.1286 81.0386 65.3381 81.0272 65.5476C81.0331 65.7794 80.9884 66.0097 80.8962 66.2223C80.8039 66.4348 80.6664 66.6245 80.4933 66.7778C80.158 67.0984 79.7125 67.2765 79.2497 67.2751ZM78.0713 80.755V69.2055H80.6756V80.755H78.0713ZM84.2696 80.755V63.8659H86.926V80.755H84.2696ZM90.4223 80.755V69.2055H92.8248V70.4291C93.1593 70.1878 93.5095 69.9692 93.873 69.7748C94.3083 69.5504 94.764 69.3686 95.2338 69.2317C95.716 69.0853 96.2149 69.0018 96.7182 68.983C97.4027 68.9297 98.0887 69.0631 98.704 69.3691C99.234 69.6912 99.6297 70.1958 99.8174 70.789C100.081 71.6574 100.2 72.5643 100.169 73.4719V80.7223H97.5647V73.7206C97.5766 73.2164 97.5241 72.7128 97.4084 72.2221C97.3731 72.0529 97.3049 71.8923 97.2077 71.7497C97.1105 71.6071 96.9862 71.4852 96.8419 71.391C96.4703 71.2013 96.0519 71.124 95.6375 71.1686C95.2191 71.192 94.8065 71.2781 94.4134 71.4238C93.942 71.588 93.5019 71.8314 93.1113 72.1436V80.7223L90.4223 80.755ZM100.039 72.1959L99.5049 70.5338C99.8242 70.2804 100.169 70.0611 100.534 69.8795C100.997 69.6335 101.483 69.434 101.985 69.284C102.52 69.1238 103.075 69.0379 103.633 69.0288C104.322 68.9902 105.009 69.1275 105.632 69.428C106.179 69.7342 106.594 70.233 106.797 70.8283C107.084 71.6901 107.214 72.5964 107.181 73.5046V80.7681H104.544V73.7664C104.555 73.2605 104.505 72.755 104.395 72.2614C104.325 71.924 104.126 71.6277 103.841 71.4369C103.472 71.2471 103.055 71.1698 102.643 71.2144C102.195 71.2346 101.754 71.3342 101.341 71.5088C100.879 71.6804 100.441 71.9114 100.039 72.1959ZM114.239 80.755V69.2055H116.615V70.4291C116.95 70.1883 117.3 69.9697 117.664 69.7748C118.101 69.5496 118.559 69.3677 119.031 69.2317C119.511 69.085 120.008 69.0014 120.509 68.983C121.182 68.9357 121.856 69.0689 122.462 69.3691C122.992 69.6915 123.387 70.196 123.575 70.789C123.839 71.658 123.958 72.5643 123.927 73.4719V80.7223H121.323V73.7206C121.335 73.2164 121.282 72.7128 121.166 72.2221C121.131 72.0529 121.063 71.8923 120.966 71.7497C120.868 71.6071 120.744 71.4852 120.6 71.391C120.231 71.2013 119.814 71.124 119.402 71.1686C118.981 71.1913 118.567 71.2774 118.171 71.4238C117.689 71.5846 117.237 71.8282 116.837 72.1436V80.7223L114.239 80.755ZM123.855 72.1959L123.321 70.5338C123.642 70.2794 123.989 70.06 124.357 69.8795C124.819 69.6322 125.306 69.4326 125.809 69.284C126.343 69.1231 126.898 69.0372 127.456 69.0288C128.143 68.9903 128.828 69.1276 129.448 69.428C129.983 69.7362 130.388 70.2292 130.588 70.8152C130.874 71.677 131.004 72.5833 130.972 73.4916V80.755H128.328V73.7533C128.338 73.2478 128.29 72.7428 128.185 72.2483C128.115 71.9111 127.917 71.6149 127.632 71.4238C127.26 71.2347 126.842 71.1575 126.427 71.2013C125.979 71.2218 125.538 71.3214 125.125 71.4957C124.674 71.6739 124.247 71.9092 123.855 72.1959ZM138.882 80.9186C138.155 80.9639 137.427 80.8452 136.751 80.5712C136.075 80.2972 135.468 79.8749 134.976 79.335C134.002 78.0909 133.515 76.5311 133.609 74.9508C133.594 73.9127 133.803 72.8836 134.221 71.9342C134.609 71.0749 135.235 70.3458 136.024 69.8337C136.896 69.2945 137.904 69.0196 138.928 69.0419C139.491 69.0257 140.052 69.1053 140.588 69.2775C141.1 69.4489 141.571 69.7224 141.975 70.0823C142.393 70.4708 142.722 70.9465 142.939 71.4761C143.196 72.1141 143.326 72.7966 143.323 73.485V74.6498C143.32 74.9551 143.29 75.2596 143.232 75.5593H135.093L135.295 73.9823H140.855C140.89 73.4655 140.857 72.9463 140.757 72.438C140.679 72.0048 140.464 71.6081 140.145 71.306C139.767 70.9957 139.285 70.8434 138.798 70.8806C138.304 70.8716 137.821 71.0206 137.417 71.306C136.959 71.6804 136.634 72.195 136.493 72.7718C136.246 73.6967 136.154 74.6564 136.219 75.6117C136.218 76.2974 136.388 76.9725 136.714 77.5748C136.986 78.0393 137.399 78.404 137.893 78.6152C138.417 78.8324 138.98 78.9393 139.546 78.9293C139.882 78.926 140.217 78.8972 140.549 78.8442C140.92 78.7924 141.287 78.7181 141.649 78.6218C141.931 78.557 142.203 78.4536 142.457 78.3142L142.945 79.8127C142.627 80.0522 142.273 80.2399 141.897 80.3689C141.423 80.5364 140.938 80.6653 140.445 80.755C139.93 80.8577 139.407 80.9127 138.882 80.9186ZM149.781 80.9186C148.968 80.9289 148.169 80.706 147.477 80.2761C146.785 79.8461 146.229 79.2269 145.875 78.4909C145.413 77.5222 145.19 76.4562 145.224 75.3827C145.197 74.2318 145.447 73.0914 145.953 72.0585C146.402 71.1375 147.105 70.3654 147.978 69.8337C148.901 69.2899 149.956 69.0157 151.025 69.0419C151.627 69.0255 152.227 69.1073 152.802 69.284C153.125 69.3726 153.431 69.5141 153.707 69.7028L152.894 71.3845C152.664 71.2039 152.393 71.0846 152.106 71.0377C151.717 70.9677 151.322 70.9349 150.927 70.9395C150.393 70.9364 149.87 71.0986 149.43 71.4041C148.95 71.7633 148.58 72.2508 148.362 72.811C148.074 73.5481 147.934 74.3356 147.952 75.1275C147.853 76.1203 148.082 77.1183 148.603 77.9674C148.833 78.2622 149.131 78.4966 149.472 78.6504C149.812 78.8043 150.184 78.873 150.556 78.8508C151.028 78.858 151.497 78.7643 151.93 78.576C152.273 78.4365 152.596 78.254 152.894 78.0328L153.284 79.3416C153.121 79.5117 152.9 79.7211 152.633 79.9959C152.301 80.2712 151.927 80.4921 151.526 80.6503C150.968 80.8531 150.375 80.9442 149.781 80.9186ZM153.037 80.755V79.25L152.881 79.1518V71.0835L152.965 71.0246L152.881 68.5184V63.8659H155.485V80.755H153.037ZM166.397 80.9186C165.606 80.9271 164.827 80.719 164.144 80.3166C163.426 79.8768 162.851 79.2354 162.491 78.4713C162.029 77.5026 161.806 76.4366 161.839 75.363C161.814 74.213 162.061 73.0733 162.562 72.0389C163.014 71.1194 163.716 70.3477 164.587 69.814C165.512 69.2709 166.569 68.9968 167.641 69.0223C168.242 69.0059 168.843 69.0877 169.418 69.2644C169.741 69.353 170.046 69.4945 170.323 69.6832L169.509 71.3649C169.278 71.1832 169.005 71.0638 168.715 71.0181C168.328 70.9481 167.936 70.9153 167.543 70.9199C167.008 70.9166 166.485 71.0788 166.045 71.3845C165.563 71.7415 165.193 72.2296 164.978 72.7914C164.689 73.5285 164.55 74.316 164.568 75.1078C164.471 76.1005 164.7 77.0976 165.219 77.9478C165.45 78.2416 165.748 78.4753 166.088 78.6291C166.428 78.7828 166.8 78.8521 167.172 78.8312C167.644 78.8377 168.112 78.7441 168.546 78.5563C168.888 78.4169 169.212 78.2344 169.509 78.0132L169.9 79.3219C169.737 79.4921 169.509 79.7015 169.249 79.9763C168.915 80.2529 168.539 80.4738 168.135 80.6307C167.58 80.8405 166.99 80.9383 166.397 80.9186ZM169.652 80.755V79.25L169.496 79.1518V71.0835L169.581 71.0246L169.496 68.5184V63.8659H172.101V80.755H169.652ZM180.07 80.9186C179.342 80.9633 178.614 80.8444 177.938 80.5705C177.263 80.2965 176.656 79.8745 176.163 79.335C175.189 78.0909 174.703 76.5311 174.796 74.9508C174.79 73.9094 175.012 72.8793 175.447 71.9342C175.833 71.0752 176.457 70.346 177.244 69.8337C178.118 69.2935 179.129 69.0185 180.154 69.0419C180.715 69.0259 181.274 69.1056 181.808 69.2775C182.32 69.4489 182.791 69.7224 183.195 70.0823C183.613 70.4708 183.942 70.9465 184.159 71.4761C184.416 72.1141 184.546 72.7966 184.543 73.485V74.6498C184.543 74.9554 184.513 75.2603 184.452 75.5593H176.248L176.45 73.9823H182.023C182.065 73.4655 182.032 72.9454 181.925 72.438C181.849 72.0053 181.637 71.6086 181.32 71.306C180.939 71.0004 180.458 70.8487 179.972 70.8806C179.478 70.8695 178.994 71.0187 178.592 71.306C178.131 71.6797 177.804 72.1943 177.661 72.7718C177.414 73.6967 177.322 74.6564 177.387 75.6117C177.386 76.2974 177.556 76.9725 177.882 77.5748C178.154 78.0393 178.567 78.404 179.061 78.6152C179.585 78.8312 180.147 78.9385 180.714 78.9293C181.05 78.926 181.385 78.8972 181.717 78.8442C182.09 78.7919 182.459 78.718 182.824 78.6218C183.104 78.5576 183.373 78.4536 183.625 78.3142L184.113 79.8127C183.796 80.0507 183.445 80.2383 183.071 80.3689C182.598 80.5358 182.112 80.6647 181.619 80.755C181.109 80.8564 180.59 80.9114 180.07 80.9186ZM190.546 85.7281V83.6015C190.718 83.6545 190.894 83.6892 191.073 83.7062C191.252 83.7337 191.432 83.7487 191.613 83.752C191.973 83.7409 192.328 83.6655 192.662 83.5295C193.119 83.3365 193.512 83.0164 193.795 82.6068C194.229 81.9631 194.513 81.2296 194.628 80.4605L194.771 80.755H193.658L189.576 69.1858H192.395L194.661 76.3838L195.611 79.7276H195.045L195.891 76.3838L197.792 69.1858H200.618L196.842 81.0887C196.513 82.2449 195.962 83.3253 195.22 84.2689C194.688 84.9345 193.972 85.4283 193.163 85.6889C192.951 85.7596 192.733 85.8099 192.512 85.8394C192.297 85.8793 192.079 85.9016 191.861 85.9048C191.716 85.912 191.57 85.912 191.425 85.9048L190.878 85.8394C190.762 85.8185 190.65 85.781 190.546 85.7281ZM202.428 80.755V69.2055H204.811V70.4488C205.148 70.2085 205.501 69.9899 205.866 69.7944C206.307 69.5712 206.766 69.3872 207.239 69.2447C207.727 69.093 208.233 69.0071 208.743 68.9895C209.229 68.9302 209.722 68.9863 210.182 69.1533C210.643 69.3204 211.057 69.5938 211.393 69.9515C211.94 70.6235 212.214 71.8059 212.214 73.4981V80.7288H209.557V73.7271C209.612 73.0314 209.482 72.3335 209.18 71.7051C208.926 71.2994 208.405 71.1228 207.604 71.162C207.338 71.1768 207.074 71.2185 206.816 71.2864C206.507 71.3727 206.204 71.482 205.911 71.6135C205.602 71.76 205.309 71.9399 205.039 72.1501V80.7288L202.428 80.755ZM219.851 85.9899C218.546 86.0606 217.248 85.7589 216.107 85.1196C215.683 84.8482 215.339 84.468 215.11 84.0182C214.881 83.5684 214.776 83.0654 214.805 82.561C214.796 82.1619 214.902 81.7687 215.111 81.429C215.309 81.0972 215.573 80.8099 215.886 80.5849C216.181 80.3578 216.511 80.1811 216.862 80.0614L218.471 80.2642L218.015 80.6634C217.832 80.8242 217.68 81.0171 217.566 81.2327C217.427 81.5242 217.362 81.8456 217.377 82.1684C217.368 82.561 217.455 82.9497 217.631 83.3005C217.811 83.6375 218.101 83.9031 218.451 84.053C218.935 84.257 219.457 84.3509 219.981 84.3278C220.517 84.333 221.051 84.267 221.57 84.1315C221.996 84.034 222.393 83.8367 222.729 83.5557C222.869 83.4357 222.98 83.286 223.056 83.1174C223.131 82.9488 223.168 82.7655 223.165 82.5807C223.175 82.2386 223.101 81.8992 222.95 81.5926C222.779 81.2822 222.498 81.0483 222.162 80.9382C221.613 80.7655 221.038 80.6902 220.463 80.7157H219.07C218.718 80.7157 218.419 80.7157 218.139 80.6765C217.893 80.6536 217.65 80.6143 217.409 80.5587C217.319 80.5375 217.233 80.4998 217.155 80.4474C217.077 80.3978 216.991 80.3603 216.901 80.3362C216.468 80.2133 216.092 79.9397 215.84 79.564C215.648 79.2467 215.546 78.8821 215.547 78.5105C215.56 78.2226 215.631 77.9393 215.756 77.6795C215.902 77.3745 216.1 77.0978 216.342 76.8615C216.626 76.5826 216.951 76.3488 217.305 76.1679L218.887 76.5147C218.633 76.6271 218.409 76.8 218.236 77.0186C218.06 77.2221 217.961 77.4816 217.956 77.7515C217.937 77.9006 217.955 78.0521 218.009 78.1925C218.062 78.3329 218.149 78.4579 218.262 78.5563C218.584 78.7273 218.948 78.8022 219.31 78.7723H221.374C222.111 78.7526 222.846 78.8449 223.556 79.0471C224.041 79.1884 224.487 79.4417 224.858 79.7865C225.157 80.0712 225.381 80.4265 225.509 80.8204C225.631 81.201 225.692 81.5985 225.691 81.9983C225.701 82.5939 225.54 83.1797 225.229 83.6865C224.908 84.1982 224.473 84.6282 223.959 84.9429C223.383 85.2955 222.754 85.554 222.097 85.7085C221.363 85.8936 220.608 85.9881 219.851 85.9899ZM219.747 76.8288C218.926 76.8417 218.112 76.6812 217.357 76.3577C216.692 76.0841 216.115 75.6312 215.69 75.0489C215.283 74.4625 215.071 73.7616 215.085 73.0466C215.054 72.2662 215.266 71.4956 215.69 70.8414C216.103 70.247 216.684 69.791 217.357 69.5327C218.129 69.2317 218.951 69.0785 219.779 69.0811C220.608 69.0561 221.435 69.1893 222.214 69.4738C222.895 69.7224 223.489 70.1632 223.927 70.7432C224.375 71.3809 224.604 72.1484 224.578 72.9288C224.614 73.677 224.412 74.4174 224.001 75.0423C223.59 75.6672 222.992 76.144 222.292 76.4035C221.479 76.7084 220.614 76.8484 219.747 76.8157V76.8288ZM219.786 75.1994C220.36 75.2302 220.927 75.0691 221.4 74.7414C221.629 74.514 221.802 74.2371 221.907 73.932C222.012 73.6268 222.046 73.3016 222.006 72.9812C222.052 72.3763 221.866 71.7767 221.485 71.306C221.274 71.1031 221.023 70.9475 220.748 70.8493C220.473 70.7512 220.181 70.7128 219.89 70.7367C219.505 70.7327 219.122 70.7924 218.757 70.9134C218.422 71.0332 218.137 71.2639 217.95 71.5677C217.722 72.034 217.621 72.5524 217.657 73.0705C217.692 73.5887 217.863 74.0882 218.152 74.5189C218.348 74.7572 218.6 74.9437 218.885 75.0623C219.17 75.1809 219.479 75.228 219.786 75.1994ZM223.25 71.1489L222.651 70.0692C222.9 69.8094 223.199 69.6024 223.529 69.4607C223.992 69.2376 224.501 69.1256 225.014 69.1335H226.231V71.1489H223.25ZM227.547 80.0483L227.879 78.1245C228.082 78.2592 228.301 78.3692 228.53 78.4516C228.915 78.6067 229.31 78.731 229.715 78.8246C230.182 78.9363 230.66 78.9956 231.141 79.0013C231.652 79.0423 232.164 78.9308 232.612 78.6807C232.767 78.5847 232.894 78.4497 232.981 78.2889C233.068 78.1282 233.111 77.9474 233.107 77.7645C233.108 77.6269 233.082 77.4904 233.029 77.3633C232.977 77.2362 232.899 77.1211 232.801 77.0251C232.555 76.7867 232.271 76.592 231.961 76.4493C231.609 76.2726 231.206 76.0894 230.763 75.8931C230.161 75.6403 229.587 75.3245 229.051 74.9508C228.601 74.6425 228.226 74.238 227.95 73.7664C227.686 73.2727 227.558 72.7169 227.579 72.1567C227.568 71.5225 227.783 70.9052 228.185 70.416C228.601 69.9363 229.139 69.579 229.741 69.3821C230.441 69.1459 231.177 69.0308 231.915 69.0419C232.587 69.0286 233.257 69.1056 233.908 69.2709C234.295 69.3586 234.67 69.4903 235.028 69.6635L234.689 71.6266C234.505 71.4927 234.303 71.3848 234.09 71.306C233.796 71.1844 233.491 71.0945 233.179 71.0377C232.835 70.9723 232.486 70.9395 232.137 70.9395C231.603 70.9074 231.069 71.0062 230.581 71.2275C230.427 71.2984 230.297 71.4116 230.204 71.5541C230.112 71.6966 230.062 71.8624 230.06 72.0323C230.044 72.2349 230.082 72.4381 230.17 72.621C230.258 72.8039 230.393 72.9599 230.561 73.0728C230.974 73.3443 231.41 73.5786 231.863 73.7729C232.531 74.0811 233.184 74.424 233.817 74.8003C234.323 75.0933 234.765 75.4849 235.119 75.952C235.444 76.4159 235.612 76.9741 235.594 77.5421C235.624 78.0243 235.535 78.5065 235.335 78.9459C235.135 79.3854 234.83 79.7685 234.448 80.0614C233.529 80.6804 232.434 80.9814 231.329 80.9186C230.793 80.9225 230.257 80.8787 229.728 80.7877C229.269 80.7138 228.816 80.6045 228.374 80.4605C228.081 80.3611 227.803 80.2224 227.547 80.0483ZM241.584 80.9186C241.055 80.931 240.53 80.8329 240.041 80.6307C239.609 80.4287 239.262 80.0815 239.058 79.6491C238.795 79.0457 238.675 78.3896 238.706 77.7318V71.0835H237.254V69.6635C237.762 69.5196 238.159 69.3887 238.439 69.2775C238.588 69.222 238.724 69.1348 238.836 69.0219C238.948 68.9089 239.035 68.7729 239.09 68.6231C239.147 68.466 239.212 68.2828 239.286 68.0734L239.52 67.3733L239.794 66.5553H241.376V69.1728H244.527V71.0704H241.343V76.4296C241.327 76.9728 241.363 77.5159 241.447 78.0525C241.457 78.1838 241.497 78.3111 241.564 78.4246C241.63 78.5381 241.722 78.6346 241.831 78.7068C242.085 78.8109 242.358 78.858 242.632 78.8442C242.851 78.8423 243.068 78.8207 243.283 78.7788C243.52 78.7342 243.755 78.6775 243.987 78.6087C244.168 78.5557 244.342 78.4837 244.507 78.3927L244.911 79.8978C244.656 80.0954 244.375 80.2582 244.078 80.382C243.692 80.5436 243.294 80.6706 242.886 80.7615C242.459 80.8618 242.022 80.9145 241.584 80.9186ZM251.689 80.9186C250.961 80.9639 250.233 80.8452 249.557 80.5712C248.881 80.2972 248.275 79.8749 247.782 79.335C246.808 78.0909 246.322 76.5311 246.415 74.9508C246.396 73.9123 246.605 72.8823 247.027 71.9342C247.416 71.0749 248.042 70.3458 248.831 69.8337C249.702 69.2932 250.711 69.0182 251.734 69.0419C252.297 69.0257 252.858 69.1053 253.395 69.2775C253.906 69.4489 254.378 69.7224 254.781 70.0823C255.2 70.4708 255.529 70.9465 255.745 71.4761C256.002 72.1141 256.132 72.7966 256.129 73.485V74.6498C256.127 74.9551 256.096 75.2596 256.038 75.5593H247.913L248.121 73.9823H253.681C253.716 73.4655 253.683 72.9463 253.583 72.438C253.505 72.0048 253.29 71.6081 252.971 71.306C252.593 70.9957 252.111 70.8434 251.624 70.8806C251.13 70.8716 250.647 71.0206 250.243 71.306C249.785 71.6804 249.46 72.195 249.319 72.7718C249.073 73.6969 248.978 74.6561 249.039 75.6117C249.042 76.2976 249.215 76.972 249.54 77.5748C249.81 78.0388 250.221 78.4035 250.712 78.6152C251.237 78.8312 251.799 78.9378 252.366 78.9293C252.702 78.9262 253.037 78.8978 253.369 78.8442C253.742 78.7931 254.111 78.7188 254.475 78.6218C254.757 78.5556 255.028 78.4522 255.283 78.3142L255.771 79.8127C255.452 80.0509 255.098 80.238 254.723 80.3689C254.249 80.5364 253.764 80.6653 253.271 80.755C252.749 80.859 252.22 80.9133 251.689 80.9186Z" fill="#50C8E5"/>
</svg>
